{"title":"In.The.Name.Of.The.King.III.2014.DVDRiP.XVID-ASR","uid":9536903,"size":1143273333,"categoryP":"video","categoryS":"movies","magnet":"?xt=urn:btih:f5ba29649dda3ffa9322b8f3f059f4704ebf32ec&amp;dn=In.The.Name.Of.The.King.III.2014.DVDRiP.XVID-ASR&amp;tr=udp%3A%2F%2Ftracker.openbittorrent.com%3A80&amp;tr=udp%3A%2F%2Fopen.demonii.com%3A1337&amp;tr=udp%3A%2F%2Ftracker.coppersurfer.tk%3A6969&amp;tr=udp%3A%2F%2Fexodus.desync.com%3A6969","seeders":16,"leechers":1,"uploader":"Acesn8s","files":-1,"time":1390950724,"description":"In.The.Name.Of.The.King.III.2014.DVDRiP.XVID-ASR\n\n**********************************************************************************\n\nFormat                                   : AVI\nFormat/Info                              : Audio Video Interleave\nFormat profile                           : OpenDML\nFile size                                : 1.06 GiB\nDuration                                 : 1h 25mn\nOverall bit rate                         : 1 792 Kbps\nWriting application                      : Lavf53.21.0\n\n**********************************************************************************\n\nVideo\n\nID                                       : 0\nFormat                                   : MPEG-4 Visual\nFormat profile                           : Advanced Simple@L5\nFormat settings, BVOP                    : 2\nFormat settings, QPel                    : No\nFormat settings, GMC                     : No warppoints\nFormat settings, Matrix                  : Default (H.263)\nMuxing mode                              : Packed bitstream\nCodec ID                                 : XVID\nCodec ID/Hint                            : XviD\nDuration                                 : 1h 25mn\nBit rate                                 : 1 394 Kbps\nWidth                                    : 720 pixels\nHeight                                   : 404 pixels\nDisplay aspect ratio                     : 16:9\nFrame rate                               : 23.976 fps\nColor space                              : YUV\nChroma subsampling                       : 4:2:0\nBit depth                                : 8 bits\nScan type                                : Progressive\nCompression mode                         : Lossy\nBits/(Pixel*Frame)                       : 0.200\nStream size                              : 848 MiB (78%)\nWriting library                          : XviD 1.2.1 (UTC 2008-12-04)\n\n**********************************************************************************\n\nAudio\n\nID                                       : 1\nFormat                                   : AC-3\nFormat/Info                              : Audio Coding 3\nMode extension                           : CM (complete main)\nFormat settings, Endianness              : Big\nCodec ID                                 : 2000\nDuration                                 : 1h 25mn\nBit rate mode                            : Constant\nBit rate                                 : 384 Kbps\nChannel(s)                               : 6 channels\nChannel positions                        : Front: L C R, Side: L R, LFE\nSampling rate                            : 48.0 KHz\nBit depth                                : 16 bits\nCompression mode                         : Lossy\nStream size                              : 234 MiB (21%)\nAlignment                                : Aligned on interleaves\nInterleave, duration                     : 32 ms (0.77 video frame)\n\n**********************************************************************************\n\nActors Dominic Purcell, Ralitsa Paskaleva, Bashar Rahal\n\nIMDb\n &lt;a href=&quot;\nhttp://www.imdb.com/title/tt2379386/&quot; rel=&quot;nofollow&quot; target=&quot;_NEW&quot;&gt;\nhttp://www.imdb.com/title/tt2379386/&lt;/a&gt;\n\n**********************************************************************************\n\nNotes: found this on another site it's n sync from beginning\nto end. has one skip issue for 20 secs from 36:00 to 36:20\nother than that plays fine.\n\n**********************************************************************************\n\nScreens:\n &lt;a href=&quot;\nhttp://img.acianetmedia.com/i/4q5PE.jpg&quot; rel=&quot;nofollow&quot; target=&quot;_NEW&quot;&gt;\nhttp://img.acianetmedia.com/i/4q5PE.jpg&lt;/a&gt;\n &lt;a href=&quot;\nhttp://img.acianetmedia.com/i/XnIv6.jpg&quot; rel=&quot;nofollow&quot; target=&quot;_NEW&quot;&gt;\nhttp://img.acianetmedia.com/i/XnIv6.jpg&lt;/a&gt;\n &lt;a href=&quot;\nhttp://img.acianetmedia.com/i/XnKJa.jpg&quot; rel=&quot;nofollow&quot; target=&quot;_NEW&quot;&gt;\nhttp://img.acianetmedia.com/i/XnKJa.jpg&lt;/a&gt;\n &lt;a href=&quot;\nhttp://img.acianetmedia.com/i/qEvbQ.jpg&quot; rel=&quot;nofollow&quot; target=&quot;_NEW&quot;&gt;\nhttp://img.acianetmedia.com/i/qEvbQ.jpg&lt;/a&gt;\n &lt;a href=&quot;\nhttp://img.acianetmedia.com/i/w8tLl.jpg&quot; rel=&quot;nofollow&quot; target=&quot;_NEW&quot;&gt;\nhttp://img.acianetmedia.com/i/w8tLl.jpg&lt;/a&gt;","torrent":{"xt":"urn:btih:f5ba29649dda3ffa9322b8f3f059f4704ebf32ec","amp;dn":"In.The.Name.Of.The.King.III.2014.DVDRiP.XVID-ASR","amp;tr":["udp%3A%2F%2Ftracker.openbittorrent.com%3A80","udp%3A%2F%2Fopen.demonii.com%3A1337","udp%3A%2F%2Ftracker.coppersurfer.tk%3A6969","udp%3A%2F%2Fexodus.desync.com%3A6969"],"infoHash":"f5ba29649dda3ffa9322b8f3f059f4704ebf32ec","infoHashBuffer":{"type":"Buffer","data":[245,186,41,100,157,218,63,250,147,34,184,243,240,89,244,112,78,191,50,236]},"announce":[],"urlList":[]}}